<svg xmlns="http://www.w3.org/2000/svg" viewBox="0 0 160 160"><defs><filter id="f" x="-50%" y="-50%" width="200%" height="200%"><feGaussianBlur stdDeviation="3.2"/></filter><linearGradient id="t" x1="0" y1="0" x2="1" y2="1"><stop offset="0" stop-color="#F2F4F6"/><stop offset="1" stop-color="#C9CED5"/></linearGradient>
<linearGradient id="a" x1="0" y1="0" x2="0" y2="1"><stop offset="0" stop-color="#A4AAB3"/><stop offset="1" stop-color="#7A818B"/></linearGradient></defs><ellipse cx="82" cy="122" rx="56" ry="7" fill="#131312" opacity=".16" filter="url(#f)"/>
<path d="M30 112c-10 4-16 12-14 22" fill="none" stroke="#2B2D31" stroke-width="4" stroke-linecap="round"/>
<path d="M24 80 104 62l32 12-80 18z" fill="url(#t)"/>
<path d="M56 92l80-18v16l-80 18z" fill="url(#a)"/>
<path d="M24 80l32 12v16l-32-12z" fill="#B3B9C1"/>
<g transform="translate(56 92) skewY(-12.7)" fill="#23262B">
<rect x="9" y="5" width="10" height="5" rx="1.2"/><rect x="23" y="5" width="10" height="5" rx="1.2"/><rect x="37" y="5" width="7" height="4" rx="2"/><rect x="48" y="4.5" width="11" height="6" rx="1"/><rect x="63" y="4" width="9" height="7" rx="1"/></g>
<path d="M24 80 104 62l32 12" fill="none" stroke="#fff" stroke-opacity=".8" stroke-width="1"/>
<circle cx="118" cy="71" r="1.6" fill="#59D38C"/>
<path d="M27 94l5 2" stroke="#23262B" stroke-width="3" stroke-linecap="round"/></svg>